<?xml version="1.0" encoding="UTF-8" standalone="no"?>
<!DOCTYPE svg PUBLIC "-//W3C//DTD SVG 1.1//EN"
 "http://www.w3.org/Graphics/SVG/1.1/DTD/svg11.dtd">
<!-- Generated by graphviz version 2.47.0 (20210316.0004)
 -->
<!-- Title: dependencies Pages: 1 -->
<svg width="504pt" height="211pt"
 viewBox="0.00 0.00 504.00 211.00" xmlns="http://www.w3.org/2000/svg" xmlns:xlink="http://www.w3.org/1999/xlink">
<g id="graph0" class="graph" transform="scale(1 1) rotate(0) translate(4 207)">
<title>dependencies</title>
<polygon fill="white" stroke="transparent" points="-4,4 -4,-207 500,-207 500,4 -4,4"/>
<text text-anchor="start" x="227.01" y="-42.4" font-family="Times-12" font-weight="bold" font-size="14.00">Legend</text>
<polygon fill="#ffffb3" stroke="transparent" points="14,-10 14,-30 34,-30 34,-10 14,-10"/>
<text text-anchor="start" x="37.63" y="-15.4" font-family="Times-12" font-size="14.00"> &#160;Declarations</text>
<polygon fill="#8dd3c7" stroke="transparent" points="127,-10 127,-30 147,-30 147,-10 127,-10"/>
<text text-anchor="start" x="150.73" y="-15.4" font-family="Times-12" font-size="14.00"> &#160;Module</text>
<polygon fill="#80b1d3" stroke="transparent" points="213,-10 213,-30 233,-30 233,-10 213,-10"/>
<text text-anchor="start" x="236.78" y="-15.4" font-family="Times-12" font-size="14.00"> &#160;Bootstrap</text>
<polygon fill="#fdb462" stroke="transparent" points="310,-10 310,-30 330,-30 330,-10 310,-10"/>
<text text-anchor="start" x="333.67" y="-15.4" font-family="Times-12" font-size="14.00"> &#160;Providers</text>
<polygon fill="#fb8072" stroke="transparent" points="406,-10 406,-30 426,-30 426,-10 406,-10"/>
<text text-anchor="start" x="429.73" y="-15.4" font-family="Times-12" font-size="14.00"> &#160;Exports</text>
<g id="clust1" class="cluster">
<title>cluster_AdminModule</title>
<polygon fill="none" stroke="black" stroke-dasharray="1,5" points="53.5,-70 53.5,-195 442.5,-195 442.5,-70 53.5,-70"/>
</g>
<g id="clust3" class="cluster">
<title>cluster_AdminModule_imports</title>
<polygon fill="none" stroke="black" points="219.5,-78 219.5,-130 434.5,-130 434.5,-78 219.5,-78"/>
</g>
<g id="clust6" class="cluster">
<title>cluster_AdminModule_providers</title>
<polygon fill="none" stroke="black" points="61.5,-78 61.5,-130 211.5,-130 211.5,-78 61.5,-78"/>
</g>
<!-- PostsModule -->
<g id="node1" class="node">
<title>PostsModule</title>
<polygon fill="#8dd3c7" stroke="black" points="426.11,-122 423.11,-126 402.11,-126 399.11,-122 336.89,-122 336.89,-86 426.11,-86 426.11,-122"/>
<text text-anchor="middle" x="381.5" y="-99.8" font-family="Times,serif" font-size="14.00">PostsModule</text>
</g>
<!-- AdminModule -->
<g id="node3" class="node">
<title>AdminModule</title>
<polygon fill="#8dd3c7" stroke="black" points="322.94,-187 319.94,-191 298.94,-191 295.94,-187 224.06,-187 224.06,-151 322.94,-151 322.94,-187"/>
<text text-anchor="middle" x="273.5" y="-164.8" font-family="Times,serif" font-size="14.00">AdminModule</text>
</g>
<!-- PostsModule&#45;&gt;AdminModule -->
<g id="edge1" class="edge">
<title>PostsModule&#45;&gt;AdminModule</title>
<path fill="none" stroke="black" d="M381.5,-122.11C381.5,-141.34 381.5,-169 381.5,-169 381.5,-169 332.76,-169 332.76,-169"/>
<polygon fill="black" stroke="black" points="332.76,-165.5 322.76,-169 332.76,-172.5 332.76,-165.5"/>
</g>
<!-- UsersModule -->
<g id="node2" class="node">
<title>UsersModule</title>
<polygon fill="#8dd3c7" stroke="black" points="319.42,-122 316.42,-126 295.42,-126 292.42,-122 227.58,-122 227.58,-86 319.42,-86 319.42,-122"/>
<text text-anchor="middle" x="273.5" y="-99.8" font-family="Times,serif" font-size="14.00">UsersModule</text>
</g>
<!-- UsersModule&#45;&gt;AdminModule -->
<g id="edge2" class="edge">
<title>UsersModule&#45;&gt;AdminModule</title>
<path fill="none" stroke="black" d="M273.5,-122.11C273.5,-122.11 273.5,-140.99 273.5,-140.99"/>
<polygon fill="black" stroke="black" points="270,-140.99 273.5,-150.99 277,-140.99 270,-140.99"/>
</g>
<!-- AdminService -->
<g id="node4" class="node">
<title>AdminService</title>
<ellipse fill="#fdb462" stroke="black" cx="136.5" cy="-104" rx="66.63" ry="18"/>
<text text-anchor="middle" x="136.5" y="-99.8" font-family="Times,serif" font-size="14.00">AdminService</text>
</g>
<!-- AdminService&#45;&gt;AdminModule -->
<g id="edge3" class="edge">
<title>AdminService&#45;&gt;AdminModule</title>
<path fill="none" stroke="black" d="M136.5,-122.11C136.5,-141.34 136.5,-169 136.5,-169 136.5,-169 214.04,-169 214.04,-169"/>
<polygon fill="black" stroke="black" points="214.04,-172.5 224.04,-169 214.04,-165.5 214.04,-172.5"/>
</g>
</g>
</svg>
