<?xml version="1.0" encoding="UTF-8" standalone="no"?>
<!DOCTYPE svg PUBLIC "-//W3C//DTD SVG 1.1//EN"
 "http://www.w3.org/Graphics/SVG/1.1/DTD/svg11.dtd">
<!-- Generated by graphviz version 2.47.0 (20210316.0004)
 -->
<!-- Title: dependencies Pages: 1 -->
<svg width="1098pt" height="352pt"
 viewBox="0.00 0.00 1098.00 352.00" xmlns="http://www.w3.org/2000/svg" xmlns:xlink="http://www.w3.org/1999/xlink">
<g id="graph0" class="graph" transform="scale(1 1) rotate(0) translate(4 348)">
<title>dependencies</title>
<polygon fill="white" stroke="transparent" points="-4,4 -4,-348 1094,-348 1094,4 -4,4"/>
<text text-anchor="start" x="524.01" y="-42.4" font-family="Times-12" font-weight="bold" font-size="14.00">Legend</text>
<polygon fill="#ffffb3" stroke="transparent" points="311,-10 311,-30 331,-30 331,-10 311,-10"/>
<text text-anchor="start" x="334.63" y="-15.4" font-family="Times-12" font-size="14.00"> &#160;Declarations</text>
<polygon fill="#8dd3c7" stroke="transparent" points="424,-10 424,-30 444,-30 444,-10 424,-10"/>
<text text-anchor="start" x="447.73" y="-15.4" font-family="Times-12" font-size="14.00"> &#160;Module</text>
<polygon fill="#80b1d3" stroke="transparent" points="510,-10 510,-30 530,-30 530,-10 510,-10"/>
<text text-anchor="start" x="533.78" y="-15.4" font-family="Times-12" font-size="14.00"> &#160;Bootstrap</text>
<polygon fill="#fdb462" stroke="transparent" points="607,-10 607,-30 627,-30 627,-10 607,-10"/>
<text text-anchor="start" x="630.67" y="-15.4" font-family="Times-12" font-size="14.00"> &#160;Providers</text>
<polygon fill="#fb8072" stroke="transparent" points="703,-10 703,-30 723,-30 723,-10 703,-10"/>
<text text-anchor="start" x="726.73" y="-15.4" font-family="Times-12" font-size="14.00"> &#160;Exports</text>
<g id="clust1" class="cluster">
<title>cluster_AdminModule</title>
<polygon fill="none" stroke="black" stroke-dasharray="1,5" points="8,-70 8,-271 302,-271 302,-70 8,-70"/>
</g>
<g id="clust3" class="cluster">
<title>cluster_AdminModule_imports</title>
<polygon fill="none" stroke="black" points="186,-78 186,-195 294,-195 294,-78 186,-78"/>
</g>
<g id="clust6" class="cluster">
<title>cluster_AdminModule_providers</title>
<polygon fill="none" stroke="black" points="16,-143 16,-195 166,-195 166,-143 16,-143"/>
</g>
<g id="clust7" class="cluster">
<title>cluster_AppModule</title>
<polygon fill="none" stroke="black" stroke-dasharray="1,5" points="608,-211 608,-336 728,-336 728,-211 608,-211"/>
</g>
<g id="clust9" class="cluster">
<title>cluster_AppModule_imports</title>
<polygon fill="none" stroke="black" points="616,-219 616,-271 720,-271 720,-219 616,-219"/>
</g>
<g id="clust13" class="cluster">
<title>cluster_AuthModule</title>
<polygon fill="none" stroke="black" stroke-dasharray="1,5" points="652,-135 652,-203 1082,-203 1082,-135 652,-135"/>
</g>
<g id="clust18" class="cluster">
<title>cluster_AuthModule_providers</title>
<polygon fill="none" stroke="black" points="660,-143 660,-195 1074,-195 1074,-143 660,-143"/>
</g>
<g id="clust19" class="cluster">
<title>cluster_PostsModule</title>
<polygon fill="none" stroke="black" stroke-dasharray="1,5" points="310,-211 310,-279 578,-279 578,-211 310,-211"/>
</g>
<g id="clust22" class="cluster">
<title>cluster_PostsModule_exports</title>
<polygon fill="none" stroke="black" points="462,-219 462,-271 570,-271 570,-219 462,-219"/>
</g>
<g id="clust24" class="cluster">
<title>cluster_PostsModule_providers</title>
<polygon fill="none" stroke="black" points="318,-219 318,-271 454,-271 454,-219 318,-219"/>
</g>
<g id="clust25" class="cluster">
<title>cluster_UsersModule</title>
<polygon fill="none" stroke="black" stroke-dasharray="1,5" points="370,-135 370,-203 644,-203 644,-135 370,-135"/>
</g>
<g id="clust28" class="cluster">
<title>cluster_UsersModule_exports</title>
<polygon fill="none" stroke="black" points="526,-143 526,-195 636,-195 636,-143 526,-143"/>
</g>
<g id="clust30" class="cluster">
<title>cluster_UsersModule_providers</title>
<polygon fill="none" stroke="black" points="378,-143 378,-195 518,-195 518,-143 378,-143"/>
</g>
<!-- PostsModule -->
<g id="node1" class="node">
<title>PostsModule</title>
<polygon fill="#8dd3c7" stroke="black" points="285.61,-187 282.61,-191 261.61,-191 258.61,-187 196.39,-187 196.39,-151 285.61,-151 285.61,-187"/>
<text text-anchor="middle" x="241" y="-164.8" font-family="Times,serif" font-size="14.00">PostsModule</text>
</g>
<!-- AdminModule -->
<g id="node3" class="node">
<title>AdminModule</title>
<polygon fill="#8dd3c7" stroke="black" points="235.44,-263 232.44,-267 211.44,-267 208.44,-263 136.56,-263 136.56,-227 235.44,-227 235.44,-263"/>
<text text-anchor="middle" x="186" y="-240.8" font-family="Times,serif" font-size="14.00">AdminModule</text>
</g>
<!-- PostsModule&#45;&gt;AdminModule -->
<g id="edge1" class="edge">
<title>PostsModule&#45;&gt;AdminModule</title>
<path fill="none" stroke="black" d="M215.83,-187.01C215.83,-187.01 215.83,-216.85 215.83,-216.85"/>
<polygon fill="black" stroke="black" points="212.33,-216.85 215.83,-226.85 219.33,-216.85 212.33,-216.85"/>
</g>
<!-- AppModule -->
<g id="node6" class="node">
<title>AppModule</title>
<polygon fill="#8dd3c7" stroke="black" points="699.66,-328 696.66,-332 675.66,-332 672.66,-328 616.34,-328 616.34,-292 699.66,-292 699.66,-328"/>
<text text-anchor="middle" x="658" y="-305.8" font-family="Times,serif" font-size="14.00">AppModule</text>
</g>
<!-- PostsModule&#45;&gt;AppModule -->
<g id="edge6" class="edge">
<title>PostsModule&#45;&gt;AppModule</title>
<path fill="none" stroke="black" d="M247.8,-187.14C247.8,-225.23 247.8,-310 247.8,-310 247.8,-310 606.03,-310 606.03,-310"/>
<polygon fill="black" stroke="black" points="606.03,-313.5 616.03,-310 606.03,-306.5 606.03,-313.5"/>
</g>
<!-- PostsService  -->
<g id="node10" class="node">
<title>PostsService </title>
<polygon fill="#fb8072" stroke="black" points="561.54,-263 470.46,-263 470.46,-227 561.54,-227 561.54,-263"/>
<text text-anchor="middle" x="516" y="-240.8" font-family="Times,serif" font-size="14.00">PostsService </text>
</g>
<!-- PostsModule&#45;&gt;PostsService  -->
<g id="edge13" class="edge">
<title>PostsModule&#45;&gt;PostsService </title>
<path fill="none" stroke="black" stroke-dasharray="5,2" d="M260.39,-187.11C260.39,-196.9 260.39,-207 260.39,-207 260.39,-207 490.23,-207 490.23,-207 490.23,-207 490.23,-216.89 490.23,-216.89"/>
<polygon fill="black" stroke="black" points="486.73,-216.89 490.23,-226.89 493.73,-216.89 486.73,-216.89"/>
</g>
<!-- UsersModule -->
<g id="node2" class="node">
<title>UsersModule</title>
<polygon fill="#8dd3c7" stroke="black" points="285.92,-122 282.92,-126 261.92,-126 258.92,-122 194.08,-122 194.08,-86 285.92,-86 285.92,-122"/>
<text text-anchor="middle" x="240" y="-99.8" font-family="Times,serif" font-size="14.00">UsersModule</text>
</g>
<!-- UsersModule&#45;&gt;PostsModule -->
<g id="edge12" class="edge">
<title>UsersModule&#45;&gt;PostsModule</title>
<path fill="none" stroke="black" d="M241,-122.11C241,-122.11 241,-140.99 241,-140.99"/>
<polygon fill="black" stroke="black" points="237.5,-140.99 241,-150.99 244.5,-140.99 237.5,-140.99"/>
</g>
<!-- UsersModule&#45;&gt;AdminModule -->
<g id="edge2" class="edge">
<title>UsersModule&#45;&gt;AdminModule</title>
<path fill="none" stroke="black" d="M194.21,-104C183.96,-104 176.05,-104 176.05,-104 176.05,-104 176.05,-216.86 176.05,-216.86"/>
<polygon fill="black" stroke="black" points="172.55,-216.86 176.05,-226.86 179.55,-216.86 172.55,-216.86"/>
</g>
<!-- AuthModule -->
<g id="node5" class="node">
<title>AuthModule</title>
<polygon fill="#8dd3c7" stroke="black" points="711.55,-263 708.55,-267 687.55,-267 684.55,-263 624.45,-263 624.45,-227 711.55,-227 711.55,-263"/>
<text text-anchor="middle" x="668" y="-240.8" font-family="Times,serif" font-size="14.00">AuthModule</text>
</g>
<!-- UsersModule&#45;&gt;AuthModule -->
<g id="edge8" class="edge">
<title>UsersModule&#45;&gt;AuthModule</title>
<path fill="none" stroke="black" d="M285.98,-101C392.61,-101 647.74,-101 647.74,-101 647.74,-101 647.74,-216.76 647.74,-216.76"/>
<polygon fill="black" stroke="black" points="644.24,-216.76 647.74,-226.76 651.24,-216.76 644.24,-216.76"/>
</g>
<!-- UsersModule&#45;&gt;AppModule -->
<g id="edge7" class="edge">
<title>UsersModule&#45;&gt;AppModule</title>
<path fill="none" stroke="black" d="M285.96,-94C297,-94 305.66,-94 305.66,-94 305.66,-94 305.66,-301 305.66,-301 305.66,-301 606.2,-301 606.2,-301"/>
<polygon fill="black" stroke="black" points="606.2,-304.5 616.2,-301 606.2,-297.5 606.2,-304.5"/>
</g>
<!-- UsersService  -->
<g id="node12" class="node">
<title>UsersService </title>
<polygon fill="#fb8072" stroke="black" points="627.85,-187 534.15,-187 534.15,-151 627.85,-151 627.85,-187"/>
<text text-anchor="middle" x="581" y="-164.8" font-family="Times,serif" font-size="14.00">UsersService </text>
</g>
<!-- UsersModule&#45;&gt;UsersService  -->
<g id="edge15" class="edge">
<title>UsersModule&#45;&gt;UsersService </title>
<path fill="none" stroke="black" stroke-dasharray="5,2" d="M285.99,-108C379.07,-108 581,-108 581,-108 581,-108 581,-140.7 581,-140.7"/>
<polygon fill="black" stroke="black" points="577.5,-140.7 581,-150.7 584.5,-140.7 577.5,-140.7"/>
</g>
<!-- AdminModule&#45;&gt;AppModule -->
<g id="edge4" class="edge">
<title>AdminModule&#45;&gt;AppModule</title>
<path fill="none" stroke="black" d="M186,-263.29C186,-285.21 186,-319 186,-319 186,-319 606.11,-319 606.11,-319"/>
<polygon fill="black" stroke="black" points="606.11,-322.5 616.11,-319 606.11,-315.5 606.11,-322.5"/>
</g>
<!-- AdminService -->
<g id="node4" class="node">
<title>AdminService</title>
<ellipse fill="#fdb462" stroke="black" cx="91" cy="-169" rx="66.63" ry="18"/>
<text text-anchor="middle" x="91" y="-164.8" font-family="Times,serif" font-size="14.00">AdminService</text>
</g>
<!-- AdminService&#45;&gt;AdminModule -->
<g id="edge3" class="edge">
<title>AdminService&#45;&gt;AdminModule</title>
<path fill="none" stroke="black" d="M147.3,-178.94C147.3,-178.94 147.3,-216.91 147.3,-216.91"/>
<polygon fill="black" stroke="black" points="143.8,-216.91 147.3,-226.91 150.8,-216.91 143.8,-216.91"/>
</g>
<!-- AuthModule&#45;&gt;AppModule -->
<g id="edge5" class="edge">
<title>AuthModule&#45;&gt;AppModule</title>
<path fill="none" stroke="black" d="M662.03,-263.11C662.03,-263.11 662.03,-281.99 662.03,-281.99"/>
<polygon fill="black" stroke="black" points="658.53,-281.99 662.03,-291.99 665.53,-281.99 658.53,-281.99"/>
</g>
<!-- AuthService -->
<g id="node7" class="node">
<title>AuthService</title>
<ellipse fill="#fdb462" stroke="black" cx="1007" cy="-169" rx="59.11" ry="18"/>
<text text-anchor="middle" x="1007" y="-164.8" font-family="Times,serif" font-size="14.00">AuthService</text>
</g>
<!-- AuthService&#45;&gt;AuthModule -->
<g id="edge9" class="edge">
<title>AuthService&#45;&gt;AuthModule</title>
<path fill="none" stroke="black" d="M1007,-187.2C1007,-211.36 1007,-251 1007,-251 1007,-251 721.62,-251 721.62,-251"/>
<polygon fill="black" stroke="black" points="721.62,-247.5 711.62,-251 721.62,-254.5 721.62,-247.5"/>
</g>
<!-- JwtStrategy -->
<g id="node8" class="node">
<title>JwtStrategy</title>
<ellipse fill="#fdb462" stroke="black" cx="873" cy="-169" rx="56.76" ry="18"/>
<text text-anchor="middle" x="873" y="-164.8" font-family="Times,serif" font-size="14.00">JwtStrategy</text>
</g>
<!-- JwtStrategy&#45;&gt;AuthModule -->
<g id="edge10" class="edge">
<title>JwtStrategy&#45;&gt;AuthModule</title>
<path fill="none" stroke="black" d="M873,-187.03C873,-207.77 873,-239 873,-239 873,-239 721.73,-239 721.73,-239"/>
<polygon fill="black" stroke="black" points="721.73,-235.5 711.73,-239 721.73,-242.5 721.73,-235.5"/>
</g>
<!-- LocalStrategy -->
<g id="node9" class="node">
<title>LocalStrategy</title>
<ellipse fill="#fdb462" stroke="black" cx="733" cy="-169" rx="65.41" ry="18"/>
<text text-anchor="middle" x="733" y="-164.8" font-family="Times,serif" font-size="14.00">LocalStrategy</text>
</g>
<!-- LocalStrategy&#45;&gt;AuthModule -->
<g id="edge11" class="edge">
<title>LocalStrategy&#45;&gt;AuthModule</title>
<path fill="none" stroke="black" d="M689.79,-182.59C689.79,-182.59 689.79,-216.96 689.79,-216.96"/>
<polygon fill="black" stroke="black" points="686.29,-216.96 689.79,-226.96 693.29,-216.96 686.29,-216.96"/>
</g>
<!-- PostsService -->
<g id="node11" class="node">
<title>PostsService</title>
<ellipse fill="#fdb462" stroke="black" cx="386" cy="-245" rx="60.27" ry="18"/>
<text text-anchor="middle" x="386" y="-240.8" font-family="Times,serif" font-size="14.00">PostsService</text>
</g>
<!-- PostsService&#45;&gt;PostsModule -->
<g id="edge14" class="edge">
<title>PostsService&#45;&gt;PostsModule</title>
<path fill="none" stroke="black" d="M325.52,-245C298.64,-245 272.97,-245 272.97,-245 272.97,-245 272.97,-197.01 272.97,-197.01"/>
<polygon fill="black" stroke="black" points="276.47,-197.01 272.97,-187.01 269.47,-197.01 276.47,-197.01"/>
</g>
<!-- UsersService -->
<g id="node13" class="node">
<title>UsersService</title>
<ellipse fill="#fdb462" stroke="black" cx="448" cy="-169" rx="61.95" ry="18"/>
<text text-anchor="middle" x="448" y="-164.8" font-family="Times,serif" font-size="14.00">UsersService</text>
</g>
<!-- UsersService&#45;&gt;UsersModule -->
<g id="edge16" class="edge">
<title>UsersService&#45;&gt;UsersModule</title>
<path fill="none" stroke="black" d="M448,-150.72C448,-135.05 448,-115 448,-115 448,-115 295.9,-115 295.9,-115"/>
<polygon fill="black" stroke="black" points="295.9,-111.5 285.9,-115 295.9,-118.5 295.9,-111.5"/>
</g>
</g>
</svg>
